<?xml version="1.0" standalone="no"?>
<!DOCTYPE svg PUBLIC "-//W3C//DTD SVG 20010904//EN"
 "http://www.w3.org/TR/2001/REC-SVG-20010904/DTD/svg10.dtd">
<svg version="1.0" xmlns="http://www.w3.org/2000/svg"
 width="1120.000000pt" height="1120.000000pt" viewBox="0 0 1120.000000 1120.000000"
 preserveAspectRatio="xMidYMid meet">
<metadata>
Created by potrace 1.11, written by Peter Selinger 2001-2013
</metadata>
<g transform="translate(0.000000,1120.000000) scale(0.100000,-0.100000)"
fill="#000000" stroke="none">
<path d="M4404 9577 c-23 -44 -78 -142 -83 -147 -3 -3 -7 -12 -9 -20 -2 -8 -9
-22 -16 -30 -7 -8 -20 -28 -28 -45 -18 -36 -64 -121 -105 -195 -85 -153 -138
-250 -163 -295 -15 -27 -40 -72 -55 -100 -16 -27 -38 -68 -49 -90 -12 -22 -23
-42 -27 -45 -3 -3 -20 -34 -38 -70 -19 -36 -37 -70 -41 -75 -5 -6 -26 -44 -48
-85 -22 -41 -69 -129 -106 -194 -36 -66 -66 -123 -66 -128 0 -4 -5 -8 -11 -8
-5 0 -8 -4 -5 -9 4 -5 3 -11 -1 -13 -5 -1 -26 -37 -47 -78 -22 -41 -42 -77
-45 -80 -3 -3 -24 -39 -45 -80 -22 -41 -47 -88 -57 -105 -10 -16 -32 -56 -49
-89 -17 -32 -41 -74 -52 -95 -12 -20 -38 -67 -58 -106 -21 -38 -51 -93 -68
-121 -16 -28 -33 -61 -37 -72 -3 -12 -11 -22 -16 -22 -5 0 -9 -5 -9 -10 0 -6
-11 -28 -25 -50 -14 -22 -23 -40 -20 -40 3 0 -5 -17 -18 -37 -37 -62 -45 -76
-69 -123 -13 -25 -26 -47 -29 -50 -10 -8 -63 -114 -61 -122 1 -5 -2 -8 -7 -8
-5 0 -11 -8 -15 -17 -3 -10 -19 -40 -34 -68 -16 -27 -43 -77 -62 -110 -18 -33
-41 -75 -51 -92 -10 -18 -15 -33 -11 -33 4 0 -1 -5 -10 -11 -10 -5 -18 -14
-18 -20 0 -5 -31 -65 -69 -132 -37 -67 -99 -178 -136 -247 -37 -69 -75 -136
-84 -150 -8 -14 -25 -43 -36 -65 -12 -22 -36 -67 -54 -100 -18 -33 -46 -82
-61 -110 -43 -79 -81 -146 -111 -200 -16 -27 -33 -60 -38 -72 -5 -11 -15 -24
-20 -28 -6 -3 -11 -15 -11 -26 0 -10 -4 -19 -9 -19 -5 0 -12 -11 -15 -25 -4
-14 -11 -25 -16 -25 -6 0 -10 -5 -10 -12 0 -9 -58 -117 -189 -351 -10 -18 -33
-59 -51 -92 -122 -222 -154 -281 -159 -285 -3 -3 -7 -12 -9 -20 -2 -8 -11 -23
-19 -32 -9 -10 -12 -18 -7 -18 5 0 5 -4 -1 -8 -10 -7 -45 -67 -79 -137 -11
-22 -22 -42 -26 -45 -3 -3 -11 -16 -17 -30 -7 -14 -29 -54 -49 -90 -20 -36
-52 -94 -72 -130 -19 -36 -46 -82 -59 -102 -13 -21 -20 -38 -16 -38 5 0 3 -4
-3 -8 -6 -4 -20 -27 -33 -52 -12 -25 -30 -58 -40 -75 -37 -62 -124 -221 -165
-300 -12 -22 -24 -41 -28 -43 -5 -2 -8 -7 -8 -12 0 -4 -29 -60 -65 -124 -36
-64 -65 -118 -65 -120 0 -2 -20 -39 -45 -80 -25 -42 -45 -80 -45 -85 0 -5 -7
-14 -15 -21 -8 -7 -13 -16 -10 -20 3 -5 1 -11 -4 -15 -6 -3 -20 -27 -33 -53
-13 -26 -25 -49 -28 -52 -5 -5 -41 -70 -79 -145 -9 -16 -18 -32 -21 -35 -3 -3
-13 -20 -22 -38 -24 -46 -98 -180 -121 -222 -11 -19 -36 -64 -55 -100 -20 -36
-39 -66 -44 -68 -4 -2 -8 -12 -8 -22 0 -10 -5 -22 -10 -25 -6 -4 -17 -21 -25
-38 -8 -18 -27 -54 -43 -82 -16 -27 -46 -81 -67 -120 -21 -38 -55 -101 -76
-138 -22 -38 -39 -73 -39 -78 0 -5 -4 -9 -10 -9 -5 0 -10 -4 -10 -10 0 -15
6567 -14 6576 1 4 7 8 28 9 48 2 20 8 70 14 111 6 41 13 102 16 135 3 33 8 67
10 75 2 8 7 40 11 70 3 30 8 66 9 80 10 70 15 114 20 148 2 20 7 57 10 82 4
25 8 56 10 70 2 14 10 77 18 140 8 63 15 122 15 130 0 8 3 24 5 36 3 12 8 45
12 75 3 30 8 65 10 79 3 14 7 50 10 80 5 54 10 86 20 155 7 40 17 38 70 -12
17 -15 60 -50 95 -78 36 -27 70 -54 76 -60 6 -5 26 -21 44 -35 18 -14 38 -29
44 -35 6 -5 27 -22 48 -37 20 -15 42 -34 50 -41 7 -7 42 -35 78 -62 36 -28 67
-52 70 -55 6 -6 148 -120 201 -162 47 -36 102 -80 119 -95 8 -7 42 -34 75 -60
33 -26 67 -53 75 -60 40 -33 591 -471 619 -493 18 -14 38 -30 44 -35 7 -6 37
-30 67 -55 30 -25 57 -48 58 -52 2 -5 10 -8 17 -8 7 0 15 -3 17 -8 2 -4 24
-24 49 -45 l46 -37 1230 2 1231 3 -18 40 c-49 107 -186 416 -203 455 -5 14
-10 28 -9 32 1 5 -2 8 -8 8 -5 0 -10 4 -10 10 0 5 -12 35 -26 67 -14 32 -32
72 -39 88 -8 17 -32 70 -54 118 -23 49 -41 91 -41 93 0 2 -14 34 -31 71 -56
121 -100 221 -104 233 -1 3 -15 34 -32 70 -17 36 -45 99 -63 140 -18 41 -50
112 -71 158 -22 46 -39 85 -39 86 0 2 -10 25 -22 52 -12 27 -23 51 -23 54 -1
3 -16 37 -34 75 -18 39 -42 90 -53 115 -11 25 -28 63 -38 85 -25 54 -63 139
-65 145 -1 3 -8 21 -17 40 -9 19 -37 82 -63 140 -52 119 -66 148 -125 275 -23
50 -43 95 -44 100 -2 6 -12 30 -23 55 -12 25 -60 133 -108 240 -48 107 -97
215 -109 240 -13 25 -23 48 -24 53 -1 4 -15 37 -32 73 -16 36 -30 67 -30 69 0
2 -15 37 -34 77 -19 41 -60 132 -91 203 -62 141 -97 218 -126 280 -39 85 -73
160 -74 165 -1 3 -11 28 -24 55 -40 88 -58 128 -101 225 -24 52 -52 115 -63
140 -11 25 -21 47 -22 50 0 3 -8 21 -17 40 -47 99 -98 213 -98 217 0 2 -15 37
-34 76 -30 64 -46 102 -51 117 -1 3 -14 32 -29 65 -56 120 -86 186 -86 190 0
3 -13 33 -30 67 -16 34 -30 67 -30 75 0 7 -4 13 -10 13 -5 0 -10 6 -10 13 0 7
-10 33 -22 58 -12 24 -22 46 -23 50 0 3 -17 41 -37 85 -20 43 -38 86 -40 94
-2 8 -5 17 -8 20 -3 3 -19 34 -34 70 -16 36 -48 107 -72 159 -24 51 -44 96
-44 100 0 4 -13 33 -30 66 -16 33 -30 66 -30 74 0 8 -6 22 -13 30 -8 9 -23 39
-35 66 -11 28 -31 73 -43 100 -13 28 -23 52 -24 55 0 3 -12 30 -26 60 -14 30
-43 93 -64 140 -21 47 -47 104 -57 127 -11 23 -19 45 -19 48 0 2 -8 21 -19 40
-11 20 -20 42 -20 50 0 8 -4 15 -10 15 -5 0 -10 4 -10 10 0 5 -36 90 -79 188
-78 177 -90 202 -151 337 -35 77 -47 105 -50 120 -1 6 -9 18 -17 28 -9 9 -13
17 -9 17 3 0 -4 19 -16 43 -12 23 -22 44 -23 47 0 3 -9 20 -18 37 -10 18 -17
35 -17 38 0 3 -6 21 -14 40 l-15 35 -1603 0 -1603 0 -11 -23z"/>
</g>
</svg>
