<?xml version="1.0" encoding="UTF-8"?>
<svg width="140px" height="184px" viewBox="0 0 140 184" version="1.1" xmlns="http://www.w3.org/2000/svg" xmlns:xlink="http://www.w3.org/1999/xlink">
    <!-- Generator: Sketch 52.4 (67378) - http://www.bohemiancoding.com/sketch -->
    <title>logo-vertical</title>
    <desc>Created with Sketch.</desc>
    <g id="Amber" stroke="none" stroke-width="1" fill="none" fill-rule="evenodd">
        <g id="Artboard-Copy-5" transform="translate(-50.000000, -28.000000)">
            <g id="logo-vertical" transform="translate(50.000000, 28.000000)">
                <g id="Shape/Color">
                    <g id="Group">
                        <polygon id="Fill-22" fill="#F29100" points="55.207 -1.77635684e-14 33.421 39.463 95.238 -1.77635684e-14"></polygon>
                        <polygon id="Fill-23" fill="#EE7D00" points="7.10542736e-15 100 82.207 100 84.754 80.453 33.421 39.463"></polygon>
                        <polygon id="Fill-24" fill="#E74E0F" points="140 100 95.238 0 84.754 80.453 109.232 100"></polygon>
                        <polygon id="Fill-25" fill="#EB6608" points="33.4209 39.4629 84.7539 80.4529 95.2379 -0.0001"></polygon>
                    </g>
                </g>
                <g id="Text/Vertical" transform="translate(10.000000, 122.000000)" fill="#4C4C4C">
                    <g id="text">
                        <g id="design-sytem" transform="translate(0.000000, 45.000000)">
                            <g id="system">
                                <path d="M3.7373,15.8936 C4.6003,15.8936 5.2613,15.7126 5.7203,15.3506 C6.1803,14.9896 6.4873,14.5076 6.6403,13.9076 C6.7933,13.3056 6.8693,12.5756 6.8693,11.7156 L6.8693,5.0386 C6.8693,3.7136 6.6433,2.7236 6.1903,2.0686 C5.7393,1.4136 4.9073,1.0846 3.6953,1.0846 L1.1273,1.0846 L1.1273,15.8936 L3.7373,15.8936 Z M0.0003,0.1836 L3.6953,0.1836 C5.2693,0.1836 6.3833,0.6116 7.0373,1.4636 C7.6903,2.3176 8.0173,3.4816 8.0173,4.9556 L8.0173,11.8376 C8.0173,13.3946 7.7013,14.6076 7.0683,15.4736 C6.4343,16.3406 5.3453,16.7746 3.7993,16.7746 L0.0003,16.7746 L0.0003,0.1836 Z" id="Fill-5"></path>
                                <polygon id="Fill-7" points="11.2959 0.1836 17.1429 0.1836 17.1429 1.0846 12.4439 1.0846 12.4439 7.7416 16.3079 7.7416 16.3079 8.6026 12.4439 8.6026 12.4439 15.8936 17.2049 15.8936 17.2049 16.7746 11.2959 16.7746"></polygon>
                                <path d="M19.3564,12.6777 L20.3374,12.3707 C20.5044,13.5997 20.8074,14.5217 21.2464,15.1357 C21.6844,15.7497 22.4194,16.0577 23.4494,16.0577 C25.2444,16.0577 26.1424,15.1697 26.1424,13.3947 C26.1424,12.7117 25.9684,12.0907 25.6204,11.5307 C25.2724,10.9717 24.7154,10.3167 23.9504,9.5647 L20.8594,6.5547 C19.8714,5.5847 19.3774,4.5327 19.3774,3.3997 C19.3774,2.3217 19.7144,1.4857 20.3894,0.8907 C21.0654,0.2967 21.9664,-0.0003 23.0944,-0.0003 C24.3044,-0.0003 25.2384,0.3167 25.8924,0.9517 C26.5454,1.5867 26.9214,2.6557 27.0194,4.1567 L26.0594,4.3827 C25.9614,3.1677 25.6944,2.2827 25.2544,1.7307 C24.8174,1.1777 24.1034,0.9017 23.1154,0.9017 C22.3074,0.9017 21.6564,1.1027 21.1634,1.5047 C20.6684,1.9077 20.4214,2.5127 20.4214,3.3187 C20.4214,3.7547 20.5154,4.1747 20.7034,4.5767 C20.8914,4.9807 21.2084,5.4007 21.6534,5.8367 L24.7024,8.7857 C25.4814,9.5377 26.0934,10.2817 26.5404,11.0187 C26.9854,11.7557 27.2084,12.5277 27.2084,13.3327 C27.2084,14.5347 26.8664,15.4437 26.1844,16.0577 C25.5024,16.6717 24.5844,16.9797 23.4274,16.9797 C20.9364,16.9797 19.5794,15.5457 19.3564,12.6777" id="Fill-9"></path>
                                <polygon id="Fill-11" points="30.026 16.775 31.154 16.775 31.154 0.184 30.026 0.184"></polygon>
                                <path d="M35.3721,15.6885 C34.7731,14.8155 34.4741,13.5725 34.4741,11.9605 L34.4741,4.9165 C34.4741,3.3315 34.7761,2.1165 35.3821,1.2695 C35.9871,0.4225 37.0561,0.0005 38.5871,0.0005 C39.9931,0.0005 40.9951,0.4025 41.5941,1.2085 C42.1921,2.0135 42.4911,3.1885 42.4911,4.7305 L42.4911,5.3045 L41.4061,5.3045 L41.4061,4.6685 C41.4061,3.3855 41.2001,2.4405 40.7901,1.8335 C40.3791,1.2255 39.6441,0.9215 38.5871,0.9215 C37.4321,0.9215 36.6481,1.2555 36.2381,1.9245 C35.8271,2.5935 35.6221,3.5775 35.6221,4.8745 L35.6221,12.1045 C35.6221,13.4165 35.8381,14.4055 36.2681,15.0745 C36.7001,15.7445 37.4801,16.0785 38.6081,16.0785 C39.6651,16.0785 40.4031,15.7535 40.8211,15.1055 C41.2381,14.4575 41.4471,13.4765 41.4471,12.1665 L41.4471,9.7285 L38.7541,9.7285 L38.7541,8.8685 L42.5131,8.8685 L42.5131,16.7745 L41.7821,16.7745 L41.6141,14.9105 C41.3921,15.5935 41.0331,16.1125 40.5401,16.4665 C40.0451,16.8225 39.3731,17.0005 38.5241,17.0005 C37.0201,17.0005 35.9701,16.5635 35.3721,15.6885" id="Fill-13"></path>
                                <polygon id="Fill-14" points="46 0.1836 46.897 0.1836 52.64 14.1936 52.64 0.1836 53.643 0.1836 53.643 16.7746 52.744 16.7746 47.002 2.7446 47.002 16.7746 46 16.7746"></polygon>
                            </g>
                            <g id="design" transform="translate(61.000000, 0.000000)">
                                <path d="M0.0547,12.6777 L1.0347,12.3707 C1.2027,13.5997 1.5047,14.5217 1.9447,15.1357 C2.3827,15.7497 3.1177,16.0577 4.1477,16.0577 C5.9427,16.0577 6.8407,15.1697 6.8407,13.3947 C6.8407,12.7117 6.6667,12.0907 6.3187,11.5307 C5.9697,10.9717 5.4137,10.3167 4.6487,9.5647 L1.5577,6.5547 C0.5697,5.5847 0.0757,4.5327 0.0757,3.3997 C0.0757,2.3217 0.4117,1.4857 1.0877,0.8907 C1.7627,0.2967 2.6637,-0.0003 3.7917,-0.0003 C5.0027,-0.0003 5.9357,0.3167 6.5897,0.9517 C7.2437,1.5867 7.6197,2.6557 7.7177,4.1567 L6.7567,4.3827 C6.6587,3.1677 6.3917,2.2827 5.9527,1.7307 C5.5147,1.1777 4.8017,0.9017 3.8127,0.9017 C3.0047,0.9017 2.3547,1.1027 1.8617,1.5047 C1.3667,1.9077 1.1187,2.5127 1.1187,3.3187 C1.1187,3.7547 1.2127,4.1747 1.4017,4.5767 C1.5887,4.9807 1.9067,5.4007 2.3517,5.8367 L5.4007,8.7857 C6.1787,9.5377 6.7917,10.2817 7.2377,11.0187 C7.6827,11.7557 7.9057,12.5277 7.9057,13.3327 C7.9057,14.5347 7.5647,15.4437 6.8817,16.0577 C6.2007,16.6717 5.2827,16.9797 4.1257,16.9797 C1.6337,16.9797 0.2777,15.5457 0.0547,12.6777" id="Fill-15"></path>
                                <polygon id="Fill-16" points="13.46 11.4697 9.555 0.1837 10.725 0.1837 14.044 10.1387 17.197 0.1837 18.366 0.1837 14.588 11.4697 14.588 16.7747 13.46 16.7747"></polygon>
                                <path d="M20.1826,12.6777 L21.1636,12.3707 C21.3306,13.5997 21.6336,14.5217 22.0736,15.1357 C22.5116,15.7497 23.2456,16.0577 24.2766,16.0577 C26.0716,16.0577 26.9686,15.1697 26.9686,13.3947 C26.9686,12.7117 26.7956,12.0907 26.4476,11.5307 C26.0986,10.9717 25.5426,10.3167 24.7766,9.5647 L21.6866,6.5547 C20.6976,5.5847 20.2036,4.5327 20.2036,3.3997 C20.2036,2.3217 20.5406,1.4857 21.2166,0.8907 C21.8916,0.2967 22.7926,-0.0003 23.9206,-0.0003 C25.1316,-0.0003 26.0646,0.3167 26.7186,0.9517 C27.3726,1.5867 27.7486,2.6557 27.8456,4.1567 L26.8856,4.3827 C26.7876,3.1677 26.5206,2.2827 26.0816,1.7307 C25.6436,1.1777 24.9296,0.9017 23.9416,0.9017 C23.1336,0.9017 22.4836,1.1027 21.9896,1.5047 C21.4946,1.9077 21.2476,2.5127 21.2476,3.3187 C21.2476,3.7547 21.3416,4.1747 21.5296,4.5767 C21.7176,4.9807 22.0346,5.4007 22.4796,5.8367 L25.5286,8.7857 C26.3076,9.5377 26.9196,10.2817 27.3666,11.0187 C27.8116,11.7557 28.0346,12.5277 28.0346,13.3327 C28.0346,14.5347 27.6926,15.4437 27.0106,16.0577 C26.3286,16.6717 25.4106,16.9797 24.2546,16.9797 C21.7626,16.9797 20.4056,15.5457 20.1826,12.6777" id="Fill-17"></path>
                                <polygon id="Fill-18" points="33.0674 1.085 29.6844 1.085 29.6844 0.184 37.4934 0.184 37.4934 1.085 34.1954 1.085 34.1954 16.774 33.0674 16.774"></polygon>
                                <polygon id="Fill-19" points="39.9785 0.1836 45.8255 0.1836 45.8255 1.0846 41.1265 1.0846 41.1265 7.7416 44.9895 7.7416 44.9895 8.6026 41.1265 8.6026 41.1265 15.8936 45.8875 15.8936 45.8875 16.7746 39.9785 16.7746"></polygon>
                                <polygon id="Fill-20" points="49.0186 0.1836 50.1466 0.1836 53.7166 15.1566 57.3506 0.1836 58.5196 0.1836 58.9996 16.7746 58.0186 16.7746 57.6016 2.8676 54.1566 16.7746 53.3206 16.7746 49.9166 2.8876 49.4986 16.7746 48.5176 16.7746"></polygon>
                            </g>
                        </g>
                        <g id="amber">
                            <path d="M12.9053,22.6855 L9.9303,6.9145 L7.0003,22.6855 L12.9053,22.6855 Z M7.5243,-0.0005 L12.2933,-0.0005 L19.8623,34.9995 L15.1803,34.9995 L13.5613,26.1845 L6.3433,26.1845 L4.6363,34.9995 L0.0003,34.9995 L7.5243,-0.0005 Z" id="Fill-21"></path>
                            <polygon id="Fill-22" points="26.2041 0 31.0601 0 37.3161 28.389 43.6161 0 48.4291 0 49.0851 35 45.1041 35 44.7101 9.592 38.7171 35 35.9171 35 29.9671 9.592 29.5731 35 25.5481 35"></polygon>
                            <path d="M64.9648,31.5 C66.4228,31.5 67.5528,31.277 68.3548,30.83 C69.1568,30.384 69.7188,29.7 70.0398,28.777 C70.3608,27.856 70.5208,26.603 70.5208,25.019 C70.5208,22.771 70.0538,21.094 69.1198,19.984 C68.1878,18.876 66.6708,18.321 64.5708,18.321 L61.6398,18.321 L61.6398,31.5 L64.9648,31.5 Z M64.5708,14.605 C66.6108,14.605 68.0268,14.166 68.8148,13.287 C69.6028,12.408 69.9948,10.903 69.9948,8.771 C69.9948,7.216 69.7548,6.07 69.2748,5.336 C68.7918,4.602 68.0708,4.134 67.1088,3.932 C66.1468,3.731 64.7168,3.63 62.8208,3.63 L61.6398,3.63 L61.6398,14.605 L64.5708,14.605 Z M56.6958,0 L64.8338,0 C68.0408,0 70.4178,0.713 71.9638,2.139 C73.5098,3.564 74.2828,5.776 74.2828,8.771 C74.2828,13.237 72.5908,15.7 69.2078,16.161 C71.3078,16.651 72.8388,17.623 73.8018,19.077 C74.7648,20.532 75.2448,22.512 75.2448,25.019 C75.2448,28.159 74.4938,30.607 72.9928,32.364 C71.4898,34.121 69.2078,35 66.1468,35 L56.6958,35 L56.6958,0 Z" id="Fill-23"></path>
                            <polygon id="Fill-24" points="81.8076 0 95.5436 0 95.5436 3.63 86.7506 3.63 86.7506 15.21 93.8816 15.21 93.8816 18.666 86.7506 18.666 86.7506 31.5 95.6316 31.5 95.6316 35 81.8076 35"></polygon>
                            <path d="M108.625,15.0801 C110.754,15.0801 112.278,14.6631 113.197,13.8271 C114.115,12.9911 114.575,11.4791 114.575,9.2901 C114.575,7.8511 114.414,6.7201 114.094,5.8981 C113.772,5.0771 113.204,4.4721 112.388,4.0831 C111.57,3.6941 110.419,3.5001 108.932,3.5001 L106.744,3.5001 L106.744,15.0801 L108.625,15.0801 Z M101.801,0.0001 L108.932,0.0001 C112.52,0.0001 115.151,0.7271 116.828,2.1821 C118.505,3.6371 119.344,6.0061 119.344,9.2901 C119.344,13.7841 117.885,16.5061 114.969,17.4571 L120,35.0001 L115.231,35.0001 L110.594,18.5801 L106.744,18.5801 L106.744,35.0001 L101.801,35.0001 L101.801,0.0001 Z" id="Fill-25"></path>
                        </g>
                    </g>
                </g>
            </g>
        </g>
    </g>
</svg>