<?xml version="1.0" standalone="no"?>
<!DOCTYPE svg PUBLIC "-//W3C//DTD SVG 20010904//EN"
 "http://www.w3.org/TR/2001/REC-SVG-20010904/DTD/svg10.dtd">
<svg version="1.0" xmlns="http://www.w3.org/2000/svg"
 width="1120.000000pt" height="1120.000000pt" viewBox="0 0 1120.000000 1120.000000"
 preserveAspectRatio="xMidYMid meet">
<metadata>
Created by potrace 1.11, written by Peter Selinger 2001-2013
</metadata>
<g transform="translate(0.000000,1120.000000) scale(0.100000,-0.100000)"
fill="#000000" stroke="none">
<path d="M4407 9593 c-3 -5 -124 -224 -269 -488 -891 -1613 -1210 -2191 -1563
-2830 -103 -187 -378 -684 -610 -1105 -403 -730 -737 -1335 -1143 -2070 -607
-1100 -822 -1490 -822 -1495 0 -3 1480 -5 3290 -5 l3290 0 4 22 c3 13 19 131
36 263 16 132 37 290 45 350 8 61 25 198 39 305 28 216 51 389 69 524 l12 89
655 -523 c360 -288 798 -638 973 -777 l317 -253 1235 0 c699 0 1235 4 1235 9
0 5 -16 44 -36 87 -36 78 -487 1085 -609 1359 -34 77 -169 379 -300 670 -131
292 -275 613 -320 715 -45 102 -189 422 -319 713 -130 290 -342 764 -472 1055
-130 290 -274 610 -319 712 -45 102 -188 421 -318 710 -508 1135 -682 1524
-779 1743 l-101 227 -1608 0 c-884 0 -1610 -3 -1612 -7z"/>
</g>
</svg>
